HIERARCHY
ROOT Hips
{
  OFFSET 5.72205e-005 65.662 3.42586
  CHANNELS 6 Xposition Yposition Zposition Zrotation Xrotation Yrotation
  JOINT Chest
  {
    OFFSET 0 8.7983 -4.7612
    CHANNELS 6 Xposition Yposition Zposition Zrotation Xrotation Yrotation
    JOINT Chest2
    {
      OFFSET 0 8.0291 0.4195
      CHANNELS 6 Xposition Yposition Zposition Zrotation Xrotation Yrotation
      JOINT Chest3
      {
        OFFSET 0 9.9351 -2.2114
        CHANNELS 6 Xposition Yposition Zposition Zrotation Xrotation Yrotation
        JOINT Neck
        {
          OFFSET 0 22.3885 -0.4656
          CHANNELS 6 Xposition Yposition Zposition Zrotation Xrotation Yrotation
          JOINT Head
          {
            OFFSET -0.0001 12.643 3.4389
            CHANNELS 6 Xposition Yposition Zposition Zrotation Xrotation Yrotation
            End Site
            {
              OFFSET 0.0001 17.6655 0.5274
            }
          }
        }
        JOINT LeftCollar
        {
          OFFSET 2.2603 21.606 7.4023
          CHANNELS 6 Xposition Yposition Zposition Zrotation Xrotation Yrotation
          JOINT LeftShoulder
          {
            OFFSET 13.5163 -1.1332 -5.0146
            CHANNELS 6 Xposition Yposition Zposition Zrotation Xrotation Yrotation
            JOINT LeftElbow
            {
              OFFSET -0.0995 -28.05 -0.2431
              CHANNELS 6 Xposition Yposition Zposition Zrotation Xrotation Yrotation
              JOINT LeftWrist
              {
                OFFSET 0.0679 -23.3996 -0.1402
                CHANNELS 6 Xposition Yposition Zposition Zrotation Xrotation Yrotation
                JOINT LeftFinger1
                {
                  OFFSET 0.7932 -9.069 2.5189
                  CHANNELS 6 Xposition Yposition Zposition Zrotation Xrotation Yrotation
                  JOINT LeftFinger11
                  {
                    OFFSET -0.8272 -3.3923 0.5977
                    CHANNELS 6 Xposition Yposition Zposition Zrotation Xrotation Yrotation
                    JOINT LeftFinger12
                    {
                      OFFSET -0.5649 -2.3158 0.4082
                      CHANNELS 6 Xposition Yposition Zposition Zrotation Xrotation Yrotation
                      End Site
                      {
                        OFFSET -0.4919 -1.6479 0.2673
                      }
                    }
                  }
                }
                JOINT LeftFinger2
                {
                  OFFSET 0.9159 -9.2044 0.2193
                  CHANNELS 6 Xposition Yposition Zposition Zrotation Xrotation Yrotation
                  JOINT LeftFinger21
                  {
                    OFFSET 0.0117 -4.1944 -0.0248
                    CHANNELS 6 Xposition Yposition Zposition Zrotation Xrotation Yrotation
                    JOINT LeftFinger22
                    {
                      OFFSET 0.0071 -2.3249 -0.0142
                      CHANNELS 6 Xposition Yposition Zposition Zrotation Xrotation Yrotation
                      End Site
                      {
                        OFFSET -0.1475 -2.0882 0.0028
                      }
                    }
                  }
                }
                JOINT LeftFinger3
                {
                  OFFSET 0.6113 -8.7231 -2.0637
                  CHANNELS 6 Xposition Yposition Zposition Zrotation Xrotation Yrotation
                  JOINT LeftFinger31
                  {
                    OFFSET -0.1927 -3.8059 -0.2383
                    CHANNELS 6 Xposition Yposition Zposition Zrotation Xrotation Yrotation
                    JOINT LeftFinger32
                    {
                      OFFSET -0.1091 -2.1688 -0.1362
                      CHANNELS 6 Xposition Yposition Zposition Zrotation Xrotation Yrotation
                      End Site
                      {
                        OFFSET -0.2358 -1.9176 -0.0906
                      }
                    }
                  }
                }
                JOINT LeftFinger4
                {
                  OFFSET -0.6151 -8.0947 -3.5641
                  CHANNELS 6 Xposition Yposition Zposition Zrotation Xrotation Yrotation
                  JOINT LeftFinger41
                  {
                    OFFSET -0.4882 -2.341 -0.6462
                    CHANNELS 6 Xposition Yposition Zposition Zrotation Xrotation Yrotation
                    JOINT LeftFinger42
                    {
                      OFFSET -0.3575 -1.7167 -0.4742
                      CHANNELS 6 Xposition Yposition Zposition Zrotation Xrotation Yrotation
                      End Site
                      {
                        OFFSET -0.4187 -1.5237 -0.3496
                      }
                    }
                  }
                }
                JOINT LeftFinger0
                {
                  OFFSET -1.42 -1.8761 1.4223
                  CHANNELS 6 Xposition Yposition Zposition Zrotation Xrotation Yrotation
                  JOINT LeftFinger01
                  {
                    OFFSET -1.1471 -3.4929 2.6334
                    CHANNELS 6 Xposition Yposition Zposition Zrotation Xrotation Yrotation
                    JOINT LeftFinger02
                    {
                      OFFSET -0.823 -2.3 1.6571
                      CHANNELS 6 Xposition Yposition Zposition Zrotation Xrotation Yrotation
                      End Site
                      {
                        OFFSET -0.5822 -1.6914 1.1582
                      }
                    }
                  }
                }
              }
            }
          }
        }
        JOINT RightCollar
        {
          OFFSET -2.2603 21.606 7.4023
          CHANNELS 6 Xposition Yposition Zposition Zrotation Xrotation Yrotation
          JOINT RightShoulder
          {
            OFFSET -13.5187 -1.1334 -5.0155
            CHANNELS 6 Xposition Yposition Zposition Zrotation Xrotation Yrotation
            JOINT RightElbow
            {
              OFFSET 0.0994 -28.0499 -0.2431
              CHANNELS 6 Xposition Yposition Zposition Zrotation Xrotation Yrotation
              JOINT RightWrist
              {
                OFFSET -0.0679 -23.3996 -0.1402
                CHANNELS 6 Xposition Yposition Zposition Zrotation Xrotation Yrotation
                JOINT RightFinger1
                {
                  OFFSET -0.7932 -9.0691 2.5189
                  CHANNELS 6 Xposition Yposition Zposition Zrotation Xrotation Yrotation
                  JOINT RightFinger11
                  {
                    OFFSET 0.8272 -3.3923 0.5977
                    CHANNELS 6 Xposition Yposition Zposition Zrotation Xrotation Yrotation
                    JOINT RightFinger12
                    {
                      OFFSET 0.565 -2.3158 0.4082
                      CHANNELS 6 Xposition Yposition Zposition Zrotation Xrotation Yrotation
                      End Site
                      {
                        OFFSET 0.4919 -1.6479 0.2673
                      }
                    }
                  }
                }
                JOINT RightFinger2
                {
                  OFFSET -0.916 -9.2044 0.2193
                  CHANNELS 6 Xposition Yposition Zposition Zrotation Xrotation Yrotation
                  JOINT RightFinger21
                  {
                    OFFSET -0.0117 -4.1944 -0.0248
                    CHANNELS 6 Xposition Yposition Zposition Zrotation Xrotation Yrotation
                    JOINT RightFinger22
                    {
                      OFFSET -0.0071 -2.3249 -0.0142
                      CHANNELS 6 Xposition Yposition Zposition Zrotation Xrotation Yrotation
                      End Site
                      {
                        OFFSET 0.1475 -2.0882 0.0028
                      }
                    }
                  }
                }
                JOINT RightFinger3
                {
                  OFFSET -0.6113 -8.7231 -2.0637
                  CHANNELS 6 Xposition Yposition Zposition Zrotation Xrotation Yrotation
                  JOINT RightFinger31
                  {
                    OFFSET 0.1927 -3.8059 -0.2383
                    CHANNELS 6 Xposition Yposition Zposition Zrotation Xrotation Yrotation
                    JOINT RightFinger32
                    {
                      OFFSET 0.1091 -2.1688 -0.1362
                      CHANNELS 6 Xposition Yposition Zposition Zrotation Xrotation Yrotation
                      End Site
                      {
                        OFFSET 0.2358 -1.9176 -0.0906
                      }
                    }
                  }
                }
                JOINT RightFinger4
                {
                  OFFSET 0.6151 -8.0947 -3.564
                  CHANNELS 6 Xposition Yposition Zposition Zrotation Xrotation Yrotation
                  JOINT RightFinger41
                  {
                    OFFSET 0.4882 -2.341 -0.6462
                    CHANNELS 6 Xposition Yposition Zposition Zrotation Xrotation Yrotation
                    JOINT RightFinger42
                    {
                      OFFSET 0.3574 -1.7166 -0.4742
                      CHANNELS 6 Xposition Yposition Zposition Zrotation Xrotation Yrotation
                      End Site
                      {
                        OFFSET 0.4187 -1.5237 -0.3496
                      }
                    }
                  }
                }
                JOINT RightFinger0
                {
                  OFFSET 1.4199 -1.8761 1.4221
                  CHANNELS 6 Xposition Yposition Zposition Zrotation Xrotation Yrotation
                  JOINT RightFinger01
                  {
                    OFFSET 1.1472 -3.4929 2.6336
                    CHANNELS 6 Xposition Yposition Zposition Zrotation Xrotation Yrotation
                    JOINT RightFinger02
                    {
                      OFFSET 0.8229 -2.3 1.6571
                      CHANNELS 6 Xposition Yposition Zposition Zrotation Xrotation Yrotation
                      End Site
                      {
                        OFFSET 0.5822 -1.6914 1.1582
                      }
                    }
                  }
                }
              }
            }
          }
        }
      }
    }
  }
  JOINT RightHip
  {
    OFFSET -9.412 3.9771 -0.7758
    CHANNELS 6 Xposition Yposition Zposition Zrotation Xrotation Yrotation
    JOINT RightKnee
    {
      OFFSET -0.7531 -40.938 0
      CHANNELS 6 Xposition Yposition Zposition Zrotation Xrotation Yrotation
      JOINT RightAnkle
      {
        OFFSET 0 -40.1986 0
        CHANNELS 6 Xposition Yposition Zposition Zrotation Xrotation Yrotation
        JOINT RightToe
        {
          OFFSET 0 -4.4182 9.239
          CHANNELS 6 Xposition Yposition Zposition Zrotation Xrotation Yrotation
          End Site
          {
            OFFSET 0 0 6.1981
          }
        }
      }
    }
  }
  JOINT LeftHip
  {
    OFFSET 9.4119 3.9773 -0.7758
    CHANNELS 6 Xposition Yposition Zposition Zrotation Xrotation Yrotation
    JOINT LeftKnee
    {
      OFFSET 0.7532 -40.9383 0
      CHANNELS 6 Xposition Yposition Zposition Zrotation Xrotation Yrotation
      JOINT LeftAnkle
      {
        OFFSET 0 -40.1986 0
        CHANNELS 6 Xposition Yposition Zposition Zrotation Xrotation Yrotation
        JOINT LeftToe
        {
          OFFSET 0 -4.4182 9.239
          CHANNELS 6 Xposition Yposition Zposition Zrotation Xrotation Yrotation
          End Site
          {
            OFFSET 0 0 6.1981
          }
        }
      }
    }
  }
}
MOTION
Frames:	4
Frame Time:	0.0333333
-0.508103 3.27512 8.67465 2.72324e-008 -26.0015 4.28249e-007 0 8.7983 -4.7612 0.391998 9.7877 -7.28495 -1.52656e-016 8.0291 0.4195 2.10838 19.4418 -14.971 1.11022e-016 9.9351 -2.2114 2.10839 19.4418 -14.971 -8.88178e-016 22.3885 -0.4656 -0.232534 -0.102917 15.6015 -0.0001 12.643 3.4389 22.3566 -9.26326 -22.2153 2.2603 21.606 7.4023 8.13477e-006 -0.000405086 -12.4294 13.5163 -1.1332 -5.0146 129.155 -56.4723 5.91706 -0.0995 -28.05 -0.2431 -53.2466 -70.3043 -63.4891 0.0679 -23.3996 -0.1402 3.49143 -12.5085 41.8645 0.7932 -9.069 2.5189 -1.76556e-031 3.18055e-015 3.18055e-015 -0.8272 -3.3923 0.5977 7.95139e-015 3.18055e-015 6.36111e-015 -0.5649 -2.3158 0.4082 1.59028e-015 -3.18055e-015 6.36111e-015 0.9159 -9.2044 0.2193 -1.76556e-031 3.18055e-015 3.18055e-015 0.0117 -4.1944 -0.0248 -0.0128242 0.00232478 8.85492e-005 0.0071 -2.3249 -0.0142 -1.35174e-014 -3.18055e-014 -0 0.6113 -8.7231 -2.0637 -1.76556e-031 3.18055e-015 3.18055e-015 -0.1927 -3.8059 -0.2383 -0.0160812 0.00300116 0.000857471 -0.1091 -2.1688 -0.1362 4.77083e-015 -3.18055e-015 -6.36111e-015 -0.6151 -8.0947 -3.5641 -1.76556e-031 3.18055e-015 3.18055e-015 -0.4882 -2.341 -0.6462 -0.0126166 0.00312759 0.00283599 -0.3575 -1.7167 -0.4742 7.95139e-016 3.18055e-015 9.54166e-015 -1.42 -1.8761 1.4223 -1.76556e-031 3.18055e-015 3.18055e-015 -1.1471 -3.4929 2.6334 7.95139e-015 3.18055e-015 6.36111e-015 -0.823 -2.3 1.6571 1.59028e-015 -3.18055e-015 6.36111e-015 -2.2603 21.606 7.4023 -0.865637 0.165406 7.03889 -13.5187 -1.1334 -5.0155 -113.539 -30.069 -51.5226 0.0994 -28.0499 -0.2431 0.0024466 0.0027132 2.60391e-005 -0.0679 -23.3996 -0.1402 6.55432e-005 3.30629e-005 5.6746e-006 -0.7932 -9.0691 2.5189 7.95139e-016 0 6.36111e-015 0.8272 -3.3923 0.5977 -0 -4.77083e-015 -0 0.565 -2.3158 0.4082 -0 0 3.18055e-015 -0.916 -9.2044 0.2193 7.95139e-016 0 6.36111e-015 -0.0117 -4.1944 -0.0248 0.0129445 0.00231566 -8.85074e-005 -0.0071 -2.3249 -0.0142 3.97569e-016 1.59028e-015 -6.36111e-015 -0.6113 -8.7231 -2.0637 7.95139e-016 0 6.36111e-015 0.1927 -3.8059 -0.2383 0.016354 0.00303651 -0.000878065 0.1091 -2.1688 -0.1362 -7.95139e-016 0 -0 0.6151 -8.0947 -3.564 7.95139e-016 0 6.36111e-015 0.4882 -2.341 -0.6462 0.0145591 0.00367357 -0.00326163 0.3574 -1.7166 -0.4742 7.95139e-016 1.59028e-015 -0 1.4199 -1.8761 1.4221 7.95139e-016 0 6.36111e-015 1.1472 -3.4929 2.6336 -0 -4.77083e-015 -0 0.8229 -2.3 1.6571 -0 0 3.18055e-015 -9.412 3.9771 -0.7758 -48.4001 -69.8152 -50.19 -0.7531 -40.938 3.55271e-015 0.246256 35.6207 -1.27774 0 -40.1986 7.10543e-015 -3.38456 24.3066 -0.027731 3.55271e-015 -4.4182 9.239 1.73078e-007 -2.18123e-007 2.02634e-006 9.4119 3.9773 -0.7758 -164.075 -76.5398 -157.274 0.7532 -40.9383 -1.33227e-015 -179.926 44.2469 -175.57 -8.88179e-016 -40.1986 0 3.13769 -11.9946 3.31728 -8.88179e-016 -4.4182 9.239 9.95273e-022 -7.95139e-016 -1.89576e-022 
-0.508849 3.28011 8.67517 3.23489e-008 -26.0015 4.27479e-007 0 8.7983 -4.7612 0.391998 9.7877 -7.28495 6.93889e-017 8.0291 0.4195 2.10838 19.4418 -14.971 5.55112e-017 9.9351 -2.2114 2.10839 19.4418 -14.971 0 22.3885 -0.4656 -0.234822 -0.103801 15.5495 -0.0001 12.643 3.4389 22.4314 -9.25836 -22.2032 2.2603 21.606 7.4023 9.56686e-006 -0.000404885 -12.4294 13.5163 -1.1332 -5.0146 128.978 -56.3369 6.00766 -0.0995 -28.05 -0.2431 -53.3943 -70.3431 -63.5723 0.0679 -23.3996 -0.1402 3.46513 -12.4732 41.723 0.7932 -9.069 2.5189 -3.97569e-015 -2.22639e-014 3.18055e-015 -0.8272 -3.3923 0.5977 1.11319e-014 -1.90833e-014 6.36111e-015 -0.5649 -2.3158 0.4082 4.77083e-015 -1.90833e-014 9.54166e-015 0.9159 -9.2044 0.2193 -3.97569e-015 -2.22639e-014 3.18055e-015 0.0117 -4.1944 -0.0248 -0.0128208 0.00232607 8.93243e-005 0.0071 -2.3249 -0.0142 -1.76556e-031 -3.18055e-015 -3.18055e-015 0.6113 -8.7231 -2.0637 -3.97569e-015 -2.22639e-014 3.18055e-015 -0.1927 -3.8059 -0.2383 -0.0160595 0.0029959 0.000859876 -0.1091 -2.1688 -0.1362 -3.53113e-031 3.18055e-015 6.36111e-015 -0.6151 -8.0947 -3.5641 -3.97569e-015 -2.22639e-014 3.18055e-015 -0.4882 -2.341 -0.6462 -0.0125668 0.00311512 0.00282249 -0.3575 -1.7167 -0.4742 3.97569e-015 3.18055e-015 -0 -1.42 -1.8761 1.4223 -3.97569e-015 -2.22639e-014 3.18055e-015 -1.1471 -3.4929 2.6334 1.11319e-014 -1.90833e-014 6.36111e-015 -0.823 -2.3 1.6571 4.77083e-015 -1.90833e-014 9.54166e-015 -2.2603 21.606 7.4023 -0.865636 0.165407 7.03889 -13.5187 -1.1334 -5.0155 -113.539 -30.069 -51.5226 0.0994 -28.0499 -0.2431 0.00244703 0.00270979 2.59664e-005 -0.0679 -23.3996 -0.1402 6.54492e-005 3.4851e-005 2.43201e-006 -0.7932 -9.0691 2.5189 7.95139e-016 0 9.54166e-015 0.8272 -3.3923 0.5977 5.29669e-031 -4.77083e-015 6.36111e-015 0.565 -2.3158 0.4082 -3.97569e-016 1.59028e-015 6.36111e-015 -0.916 -9.2044 0.2193 7.95139e-016 0 9.54166e-015 -0.0117 -4.1944 -0.0248 0.0129448 0.0023158 -8.69221e-005 -0.0071 -2.3249 -0.0142 -3.97569e-016 0 -3.18055e-015 -0.6113 -8.7231 -2.0637 7.95139e-016 0 9.54166e-015 0.1927 -3.8059 -0.2383 0.0163544 0.00303604 -0.000873693 0.1091 -2.1688 -0.1362 -7.95139e-016 -4.77083e-015 -6.36111e-015 0.6151 -8.0947 -3.564 7.95139e-016 0 9.54166e-015 0.4882 -2.341 -0.6462 0.0145599 0.00367056 -0.00325733 0.3574 -1.7166 -0.4742 3.97569e-016 0 -0 1.4199 -1.8761 1.4221 7.95139e-016 0 9.54166e-015 1.1472 -3.4929 2.6336 5.29669e-031 -4.77083e-015 6.36111e-015 0.8229 -2.3 1.6571 -3.97569e-016 1.59028e-015 6.36111e-015 -9.412 3.9771 -0.7758 -47.6584 -69.6655 -49.3133 -0.7531 -40.938 -8.88178e-016 0.238446 34.6853 -1.25851 1.77636e-015 -40.1986 0 -3.39164 24.6015 -0.00926428 0 -4.4182 9.239 -3.27174e-007 5.23005e-006 -2.4047e-007 9.4119 3.9773 -0.7758 -164.065 -76.5488 -157.266 0.7532 -40.9383 -8.88178e-016 -179.926 44.2488 -175.571 0 -40.1986 0 3.13729 -12.0019 3.31672 0 -4.4182 9.239 4.40239e-015 1.59028e-015 5.06981e-014 
-0.509509 3.28503 8.67569 -1.15688e-007 -26.0015 1.52706e-007 0 8.7983 -4.7612 0.391998 9.7877 -7.28495 -8.32667e-017 8.0291 0.4195 2.10838 19.4418 -14.971 1.66534e-016 9.9351 -2.2114 2.10838 19.4418 -14.971 -8.88179e-016 22.3885 -0.4656 -0.237109 -0.104671 15.4974 -0.0001 12.643 3.4389 22.5063 -9.25346 -22.1912 2.2603 21.606 7.4023 1.10932e-005 -0.000404788 -12.4294 13.5163 -1.1332 -5.0146 128.801 -56.2014 6.09894 -0.0995 -28.05 -0.2431 -53.5426 -70.3818 -63.656 0.0679 -23.3996 -0.1402 3.43888 -12.4378 41.5814 0.7932 -9.069 2.5189 -1.59028e-015 1.25877e-006 9.54166e-015 -0.8272 -3.3923 0.5977 -8.64667e-006 2.96968e-006 3.98531e-006 -0.5649 -2.3158 0.4082 5.16231e-007 -1.74869e-008 1.54055e-006 0.9159 -9.2044 0.2193 -1.59028e-015 1.25877e-006 9.54166e-015 0.0117 -4.1944 -0.0248 -0.0128269 0.00232911 8.92119e-005 0.0071 -2.3249 -0.0142 -2.03269e-005 3.69756e-006 1.95377e-006 0.6113 -8.7231 -2.0637 -1.59028e-015 1.25877e-006 9.54166e-015 -0.1927 -3.8059 -0.2383 -0.016041 0.00299367 0.000858808 -0.1091 -2.1688 -0.1362 -4.58126e-006 8.98864e-007 1.22213e-006 -0.6151 -8.0947 -3.5641 -1.59028e-015 1.25877e-006 9.54166e-015 -0.4882 -2.341 -0.6462 -0.0126118 0.00313149 0.0028337 -0.3575 -1.7167 -0.4742 -5.16263e-007 1.75063e-008 -1.54056e-006 -1.42 -1.8761 1.4223 -1.59028e-015 1.25877e-006 9.54166e-015 -1.1471 -3.4929 2.6334 -8.64667e-006 2.96968e-006 3.98531e-006 -0.823 -2.3 1.6571 5.16231e-007 -1.74869e-008 1.54055e-006 -2.2603 21.606 7.4023 -0.865635 0.165405 7.03889 -13.5187 -1.1334 -5.0155 -113.539 -30.069 -51.5226 0.0994 -28.0499 -0.2431 0.00245136 0.00273651 2.80246e-005 -0.0679 -23.3996 -0.1402 5.80712e-005 2.93662e-005 6.23795e-006 -0.7932 -9.0691 2.5189 -3.97569e-016 1.59028e-015 6.36111e-015 0.8272 -3.3923 0.5977 -3.97569e-016 0 6.36111e-015 0.565 -2.3158 0.4082 -1.76556e-031 1.59028e-015 6.36111e-015 -0.916 -9.2044 0.2193 -3.97569e-016 1.59028e-015 6.36111e-015 -0.0117 -4.1944 -0.0248 0.0129624 0.0023203 -8.59899e-005 -0.0071 -2.3249 -0.0142 3.97569e-016 -1.59028e-015 6.36111e-015 -0.6113 -8.7231 -2.0637 -3.97569e-016 1.59028e-015 6.36111e-015 0.1927 -3.8059 -0.2383 0.0163612 0.00304224 -0.000875768 0.1091 -2.1688 -0.1362 -3.97569e-016 0 -3.18055e-015 0.6151 -8.0947 -3.564 -3.97569e-016 1.59028e-015 6.36111e-015 0.4882 -2.341 -0.6462 0.0145669 0.0036759 -0.00326106 0.3574 -1.7166 -0.4742 1.19271e-015 -1.59028e-015 6.36111e-015 1.4199 -1.8761 1.4221 -3.97569e-016 1.59028e-015 6.36111e-015 1.1472 -3.4929 2.6336 -3.97569e-016 0 6.36111e-015 0.8229 -2.3 1.6571 -1.76556e-031 1.59028e-015 6.36111e-015 -9.412 3.9771 -0.7758 -46.9254 -69.5138 -48.4464 -0.7531 -40.938 0 0.225193 33.7556 -1.23645 3.55272e-015 -40.1986 7.10543e-015 -3.39588 24.8963 0.00839648 -3.55271e-015 -4.4182 9.239 8.21578e-007 1.90879e-005 5.79866e-006 9.4119 3.9773 -0.7758 -164.054 -76.559 -157.256 0.7532 -40.9383 1.33227e-015 -179.926 44.252 -175.572 8.88179e-016 -40.1986 -7.10543e-015 3.13693 -12.0091 3.31625 8.88178e-016 -4.4182 9.239 4.7394e-023 -7.95139e-016 3.79152e-022 
-0.51009 3.28989 8.6762 -1.15688e-007 -26.0015 1.52706e-007 1.11022e-016 8.7983 -4.7612 0.391998 9.7877 -7.28495 -6.9389e-017 8.0291 0.4195 2.10838 19.4418 -14.971 5.55112e-017 9.9351 -2.2114 2.10838 19.4418 -14.971 8.88179e-016 22.3885 -0.4656 -0.239399 -0.105555 15.4454 -0.0001 12.643 3.4389 22.5811 -9.24852 -22.1792 2.2603 21.606 7.4023 1.10932e-005 -0.000404788 -12.4294 13.5163 -1.1332 -5.0146 128.623 -56.0658 6.1896 -0.0995 -28.05 -0.2431 -53.6909 -70.4205 -63.7404 0.0679 -23.3996 -0.1402 3.4127 -12.4024 41.4398 0.7932 -9.06901 2.5189 -7.95139e-015 0 -3.18055e-015 -0.8272 -3.3923 0.5977 3.18055e-015 0 -6.36111e-015 -0.5649 -2.3158 0.4082 -4.41072e-022 7.94564e-006 3.18055e-015 0.9159 -9.20441 0.2193 -7.95139e-015 0 -3.18055e-015 0.0117 -4.1944 -0.0248 -0.0128271 0.00233207 8.64831e-005 0.0071 -2.3249 -0.0142 -3.02319e-006 7.29279e-007 -8.24348e-008 0.6113 -8.7231 -2.0637 -7.95139e-015 0 -3.18055e-015 -0.1927 -3.8059 -0.2383 -0.0160296 0.00299599 0.000858595 -0.1091 -2.1688 -0.1362 -5.09949e-006 2.69195e-006 -3.14589e-007 -0.6151 -8.0947 -3.5641 -7.95139e-015 0 -3.18055e-015 -0.4882 -2.341 -0.646199 -0.0126015 0.0031302 0.00283442 -0.3575 -1.7167 -0.4742 -4.13703e-006 1.7027e-006 -6.39168e-006 -1.42 -1.8761 1.4223 -7.95139e-015 0 -3.18055e-015 -1.1471 -3.4929 2.6334 3.18055e-015 0 -6.36111e-015 -0.823 -2.3 1.6571 -4.41072e-022 7.94564e-006 3.18055e-015 -2.2603 21.606 7.4023 -0.865635 0.165405 7.03889 -13.5187 -1.1334 -5.0155 -113.539 -30.069 -51.5226 0.0994 -28.0499 -0.2431 0.00245136 0.00273651 2.80246e-005 -0.0679 -23.3996 -0.1402 5.80712e-005 2.93662e-005 6.23795e-006 -0.7932 -9.0691 2.5189 -3.97569e-016 1.59028e-015 6.36111e-015 0.8272 -3.3923 0.5977 -3.97569e-016 0 6.36111e-015 0.565 -2.3158 0.4082 -1.76556e-031 1.59028e-015 6.36111e-015 -0.916 -9.2044 0.2193 -3.97569e-016 1.59028e-015 6.36111e-015 -0.0117 -4.1944 -0.0248 0.0129624 0.0023203 -8.59899e-005 -0.0071 -2.3249 -0.0142 3.97569e-016 -1.59028e-015 6.36111e-015 -0.6113 -8.7231 -2.0637 -3.97569e-016 1.59028e-015 6.36111e-015 0.1927 -3.8059 -0.2383 0.0163612 0.00304224 -0.000875768 0.1091 -2.1688 -0.1362 -3.97569e-016 0 -3.18055e-015 0.6151 -8.0947 -3.564 -3.97569e-016 1.59028e-015 6.36111e-015 0.4882 -2.341 -0.6462 0.0145669 0.0036759 -0.00326106 0.3574 -1.7166 -0.4742 1.19271e-015 -1.59028e-015 6.36111e-015 1.4199 -1.8761 1.4221 -3.97569e-016 1.59028e-015 6.36111e-015 1.1472 -3.4929 2.6336 -3.97569e-016 0 6.36111e-015 0.8229 -2.3 1.6571 -1.76556e-031 1.59028e-015 6.36111e-015 -9.412 3.9771 -0.7758 -46.1969 -69.3599 -47.5854 -0.7531 -40.938 0 0.206616 32.8308 -1.21243 -1.77636e-015 -40.1986 0 -3.3978 25.1908 0.025394 0 -4.4182 9.239 -3.26995e-006 1.72597e-005 -1.95571e-006 9.4119 3.9773 -0.7758 -164.042 -76.5703 -157.245 0.7532 -40.9383 -5.77316e-015 -179.927 44.2564 -175.572 0 -40.1986 -7.10543e-015 3.13663 -12.0162 3.31581 0 -4.4182 9.239 -4.40237e-015 -1.59028e-015 -5.06981e-014 
